<mxfile host="65bd71144e">
    <diagram id="Pv_gWV90Ba3eqNqCVvZ-" name="Page-1">
        <mxGraphModel dx="1614" dy="1033" grid="1" gridSize="10" guides="1" tooltips="1" connect="1" arrows="1" fold="1" page="1" pageScale="1" pageWidth="850" pageHeight="1100" background="#ffffff" math="0" shadow="0">
            <root>
                <mxCell id="0"/>
                <mxCell id="1" parent="0"/>
                <mxCell id="10" style="edgeStyle=orthogonalEdgeStyle;rounded=1;orthogonalLoop=1;jettySize=auto;html=1;exitX=0.5;exitY=0;exitDx=0;exitDy=0;entryX=0;entryY=0.5;entryDx=0;entryDy=0;fontSize=16;labelBackgroundColor=none;strokeColor=#464749;fontColor=default;" parent="1" source="11" target="12" edge="1">
                    <mxGeometry relative="1" as="geometry"/>
                </mxCell>
                <mxCell id="11" value="DAC" style="rounded=1;whiteSpace=wrap;html=1;fontSize=16;labelBackgroundColor=none;fillColor=#FFFFFF;strokeColor=#464749;fontColor=#464749;fontFamily=Arial Nova Light;labelBorderColor=none;shadow=1;fontStyle=0" parent="1" vertex="1">
                    <mxGeometry x="350" y="270" width="80" height="30" as="geometry"/>
                </mxCell>
                <mxCell id="12" value="" style="rounded=1;whiteSpace=wrap;html=1;fontSize=16;labelBackgroundColor=none;fillColor=#D1D3D4;strokeColor=#464749;fontColor=#464749;shadow=1;" parent="1" vertex="1">
                    <mxGeometry x="470" y="140" width="30" height="65" as="geometry"/>
                </mxCell>
                <mxCell id="13" value="" style="shape=trapezoid;perimeter=trapezoidPerimeter;whiteSpace=wrap;html=1;fixedSize=1;fontSize=16;rotation=-90;size=45;rounded=1;labelBackgroundColor=none;fillColor=#D1D3D4;strokeColor=#464749;fontColor=#464749;shadow=1;" parent="1" vertex="1">
                    <mxGeometry x="450" y="145" width="155" height="55" as="geometry"/>
                </mxCell>
                <mxCell id="15" style="edgeStyle=orthogonalEdgeStyle;rounded=1;orthogonalLoop=1;jettySize=auto;html=1;entryX=0.5;entryY=1;entryDx=0;entryDy=0;fontSize=16;labelBackgroundColor=none;strokeColor=#464749;fontColor=default;fontFamily=Arial Nova Light;labelBorderColor=none;startArrow=none;exitX=0.467;exitY=0.568;exitDx=0;exitDy=0;exitPerimeter=0;" parent="1" source="88" target="11" edge="1">
                    <mxGeometry relative="1" as="geometry">
                        <mxPoint x="390" y="380" as="sourcePoint"/>
                    </mxGeometry>
                </mxCell>
                <mxCell id="55" value="Host Device&lt;br&gt;(Eg. SoC)" style="swimlane;whiteSpace=wrap;html=1;shadow=0;strokeColor=#464749;fontFamily=Arial Nova Light;fontColor=#464749;fillColor=#D1D3D4;rounded=1;fontStyle=1;startSize=40;swimlaneFillColor=default;" parent="1" vertex="1">
                    <mxGeometry x="120" y="260" width="200" height="380" as="geometry"/>
                </mxCell>
                <mxCell id="33" value="Audio Interfaces" style="swimlane;html=1;fontStyle=0;childLayout=stackLayout;horizontal=1;startSize=26;fillColor=#44BBF1;horizontalStack=0;resizeParent=1;resizeLast=0;collapsible=1;marginBottom=0;swimlaneFillColor=#ffffff;align=center;rounded=1;shadow=0;comic=0;labelBackgroundColor=none;strokeWidth=1;fontFamily=Arial Nova Light;fontSize=12;strokeColor=#1399DB;fontColor=#464749;" parent="55" vertex="1">
                    <mxGeometry x="20" y="110" width="160" height="60" as="geometry"/>
                </mxCell>
                <mxCell id="34" value="I2S Slave" style="text;html=1;strokeColor=none;fillColor=none;spacingLeft=4;spacingRight=4;whiteSpace=wrap;overflow=hidden;rotatable=0;points=[[0,0.5],[1,0.5]];portConstraint=eastwest;fontFamily=Arial Nova Light;fontStyle=0;align=center;" parent="33" vertex="1">
                    <mxGeometry y="26" width="160" height="26" as="geometry"/>
                </mxCell>
                <mxCell id="3" value="Application" style="rounded=1;whiteSpace=wrap;html=1;labelBackgroundColor=none;fillColor=#D1D3D4;strokeColor=#464749;fontColor=#464749;fontFamily=Arial Nova Light;labelBorderColor=none;fontStyle=0" parent="55" vertex="1">
                    <mxGeometry x="20" y="50" width="160" height="40" as="geometry"/>
                </mxCell>
                <mxCell id="76" value="Control Interfaces" style="swimlane;html=1;fontStyle=0;childLayout=stackLayout;horizontal=1;startSize=26;fillColor=#44BBF1;horizontalStack=0;resizeParent=1;resizeLast=0;collapsible=1;marginBottom=0;swimlaneFillColor=#ffffff;align=center;rounded=1;shadow=0;comic=0;labelBackgroundColor=none;strokeWidth=1;fontFamily=Arial Nova Light;fontSize=12;strokeColor=#1399DB;fontColor=#464749;" parent="55" vertex="1">
                    <mxGeometry x="20" y="180" width="160" height="90" as="geometry"/>
                </mxCell>
                <mxCell id="77" value="Host status (GPIO output)" style="text;html=1;strokeColor=none;fillColor=none;spacingLeft=4;spacingRight=4;whiteSpace=wrap;overflow=hidden;rotatable=0;points=[[0,0.5],[1,0.5]];portConstraint=eastwest;fontFamily=Arial Nova Light;fontStyle=0;align=center;" parent="76" vertex="1">
                    <mxGeometry y="26" width="160" height="26" as="geometry"/>
                </mxCell>
                <mxCell id="78" value="Host Wakeup (GPIO input)" style="text;html=1;strokeColor=none;fillColor=none;spacingLeft=4;spacingRight=4;whiteSpace=wrap;overflow=hidden;rotatable=0;points=[[0,0.5],[1,0.5]];portConstraint=eastwest;fontFamily=Arial Nova Light;fontStyle=0;align=center;" parent="76" vertex="1">
                    <mxGeometry y="52" width="160" height="26" as="geometry"/>
                </mxCell>
                <mxCell id="80" value="Intent Comm Interfaces" style="swimlane;html=1;fontStyle=0;childLayout=stackLayout;horizontal=1;startSize=26;fillColor=#44BBF1;horizontalStack=0;resizeParent=1;resizeLast=0;collapsible=1;marginBottom=0;swimlaneFillColor=#ffffff;align=center;rounded=1;shadow=0;comic=0;labelBackgroundColor=none;strokeWidth=1;fontFamily=Arial Nova Light;fontSize=12;strokeColor=#1399DB;fontColor=#464749;" parent="55" vertex="1">
                    <mxGeometry x="20" y="280" width="160" height="90" as="geometry"/>
                </mxCell>
                <mxCell id="81" value="I2C Slave" style="text;html=1;strokeColor=none;fillColor=none;spacingLeft=4;spacingRight=4;whiteSpace=wrap;overflow=hidden;rotatable=0;points=[[0,0.5],[1,0.5]];portConstraint=eastwest;fontFamily=Arial Nova Light;fontStyle=0;align=center;" parent="80" vertex="1">
                    <mxGeometry y="26" width="160" height="26" as="geometry"/>
                </mxCell>
                <mxCell id="82" value="UART (RX input)" style="text;html=1;strokeColor=none;fillColor=none;spacingLeft=4;spacingRight=4;whiteSpace=wrap;overflow=hidden;rotatable=0;points=[[0,0.5],[1,0.5]];portConstraint=eastwest;fontFamily=Arial Nova Light;fontStyle=0;align=center;" parent="80" vertex="1">
                    <mxGeometry y="52" width="160" height="26" as="geometry"/>
                </mxCell>
                <mxCell id="18" style="edgeStyle=orthogonalEdgeStyle;rounded=1;orthogonalLoop=1;jettySize=auto;html=1;exitDx=0;exitDy=0;entryX=1;entryY=0.5;entryDx=0;entryDy=0;fontSize=16;labelBackgroundColor=none;strokeColor=#464749;fontColor=default;fontFamily=Arial Nova Light;labelBorderColor=none;startArrow=none;" parent="1" source="88" target="34" edge="1">
                    <mxGeometry relative="1" as="geometry">
                        <mxPoint x="510" y="461" as="sourcePoint"/>
                        <mxPoint x="300" y="461" as="targetPoint"/>
                    </mxGeometry>
                </mxCell>
                <mxCell id="56" value="Low Power FFD&lt;br&gt;XCORE Device" style="swimlane;whiteSpace=wrap;html=1;shadow=0;strokeColor=#464749;fontFamily=Arial Nova Light;fontColor=#464749;fillColor=#D1D3D4;rounded=1;fontStyle=1;startSize=40;swimlaneFillColor=default;" parent="1" vertex="1">
                    <mxGeometry x="460" y="260" width="200" height="380" as="geometry"/>
                </mxCell>
                <mxCell id="57" value="Audio Interfaces" style="swimlane;html=1;fontStyle=0;childLayout=stackLayout;horizontal=1;startSize=26;fillColor=#44BBF1;horizontalStack=0;resizeParent=1;resizeLast=0;collapsible=1;marginBottom=0;swimlaneFillColor=#ffffff;align=center;rounded=1;shadow=0;comic=0;labelBackgroundColor=none;strokeWidth=1;fontFamily=Arial Nova Light;fontSize=12;strokeColor=#1399DB;fontColor=#464749;" parent="56" vertex="1">
                    <mxGeometry x="20" y="110" width="160" height="60" as="geometry"/>
                </mxCell>
                <mxCell id="58" value="I2S Master" style="text;html=1;strokeColor=none;fillColor=none;spacingLeft=4;spacingRight=4;whiteSpace=wrap;overflow=hidden;rotatable=0;points=[[0,0.5],[1,0.5]];portConstraint=eastwest;fontFamily=Arial Nova Light;fontStyle=0;align=center;" parent="57" vertex="1">
                    <mxGeometry y="26" width="160" height="26" as="geometry"/>
                </mxCell>
                <mxCell id="63" value="Application" style="rounded=1;whiteSpace=wrap;html=1;labelBackgroundColor=none;fillColor=#44BBF1;strokeColor=#1399DB;fontColor=#464749;fontFamily=Arial Nova Light;labelBorderColor=none;fontStyle=0;dashed=1;" parent="56" vertex="1">
                    <mxGeometry x="20" y="50" width="160" height="40" as="geometry"/>
                </mxCell>
                <mxCell id="70" value="Control Interfaces" style="swimlane;html=1;fontStyle=0;childLayout=stackLayout;horizontal=1;startSize=26;fillColor=#44BBF1;horizontalStack=0;resizeParent=1;resizeLast=0;collapsible=1;marginBottom=0;swimlaneFillColor=#ffffff;align=center;rounded=1;shadow=0;comic=0;labelBackgroundColor=none;strokeWidth=1;fontFamily=Arial Nova Light;fontSize=12;strokeColor=#1399DB;fontColor=#464749;" parent="56" vertex="1">
                    <mxGeometry x="20" y="180" width="160" height="90" as="geometry"/>
                </mxCell>
                <mxCell id="72" value="Host status (GPIO input)" style="text;html=1;strokeColor=none;fillColor=none;spacingLeft=4;spacingRight=4;whiteSpace=wrap;overflow=hidden;rotatable=0;points=[[0,0.5],[1,0.5]];portConstraint=eastwest;fontFamily=Arial Nova Light;fontStyle=0;align=center;" parent="70" vertex="1">
                    <mxGeometry y="26" width="160" height="26" as="geometry"/>
                </mxCell>
                <mxCell id="73" value="Host Wakeup (GPIO output)" style="text;html=1;strokeColor=none;fillColor=none;spacingLeft=4;spacingRight=4;whiteSpace=wrap;overflow=hidden;rotatable=0;points=[[0,0.5],[1,0.5]];portConstraint=eastwest;fontFamily=Arial Nova Light;fontStyle=0;align=center;" parent="70" vertex="1">
                    <mxGeometry y="52" width="160" height="26" as="geometry"/>
                </mxCell>
                <mxCell id="64" value="Intent Comm Interfaces" style="swimlane;html=1;fontStyle=0;childLayout=stackLayout;horizontal=1;startSize=26;fillColor=#44BBF1;horizontalStack=0;resizeParent=1;resizeLast=0;collapsible=1;marginBottom=0;swimlaneFillColor=#ffffff;align=center;rounded=1;shadow=0;comic=0;labelBackgroundColor=none;strokeWidth=1;fontFamily=Arial Nova Light;fontSize=12;strokeColor=#1399DB;fontColor=#464749;" parent="56" vertex="1">
                    <mxGeometry x="20" y="280" width="160" height="90" as="geometry"/>
                </mxCell>
                <mxCell id="68" value="I2C Master" style="text;html=1;strokeColor=none;fillColor=none;spacingLeft=4;spacingRight=4;whiteSpace=wrap;overflow=hidden;rotatable=0;points=[[0,0.5],[1,0.5]];portConstraint=eastwest;fontFamily=Arial Nova Light;fontStyle=0;align=center;" parent="64" vertex="1">
                    <mxGeometry y="26" width="160" height="26" as="geometry"/>
                </mxCell>
                <mxCell id="69" value="UART (TX output)" style="text;html=1;strokeColor=none;fillColor=none;spacingLeft=4;spacingRight=4;whiteSpace=wrap;overflow=hidden;rotatable=0;points=[[0,0.5],[1,0.5]];portConstraint=eastwest;fontFamily=Arial Nova Light;fontStyle=0;align=center;" parent="64" vertex="1">
                    <mxGeometry y="52" width="160" height="26" as="geometry"/>
                </mxCell>
                <mxCell id="83" style="edgeStyle=orthogonalEdgeStyle;rounded=1;orthogonalLoop=1;jettySize=auto;html=1;fontSize=16;labelBackgroundColor=none;strokeColor=#464749;fontColor=default;fontFamily=Arial Nova Light;labelBorderColor=none;entryX=1;entryY=0.5;entryDx=0;entryDy=0;" parent="1" source="73" target="78" edge="1">
                    <mxGeometry relative="1" as="geometry">
                        <mxPoint x="520" y="419" as="sourcePoint"/>
                        <mxPoint x="410" y="470" as="targetPoint"/>
                    </mxGeometry>
                </mxCell>
                <mxCell id="85" style="edgeStyle=orthogonalEdgeStyle;rounded=1;orthogonalLoop=1;jettySize=auto;html=1;fontSize=16;labelBackgroundColor=none;strokeColor=#464749;fontColor=default;fontFamily=Arial Nova Light;labelBorderColor=none;entryX=0;entryY=0.5;entryDx=0;entryDy=0;exitX=1;exitY=0.5;exitDx=0;exitDy=0;" parent="1" source="77" target="72" edge="1">
                    <mxGeometry relative="1" as="geometry">
                        <mxPoint x="520" y="514.9999999999999" as="sourcePoint"/>
                        <mxPoint x="310" y="514.9999999999999" as="targetPoint"/>
                    </mxGeometry>
                </mxCell>
                <mxCell id="86" style="edgeStyle=orthogonalEdgeStyle;rounded=1;orthogonalLoop=1;jettySize=auto;html=1;fontSize=16;labelBackgroundColor=none;strokeColor=#464749;fontColor=default;fontFamily=Arial Nova Light;labelBorderColor=none;entryX=1;entryY=0.5;entryDx=0;entryDy=0;exitX=0;exitY=0.5;exitDx=0;exitDy=0;" parent="1" source="68" target="81" edge="1">
                    <mxGeometry relative="1" as="geometry">
                        <mxPoint x="420" y="570" as="sourcePoint"/>
                        <mxPoint x="410" y="670" as="targetPoint"/>
                    </mxGeometry>
                </mxCell>
                <mxCell id="87" style="edgeStyle=orthogonalEdgeStyle;rounded=1;orthogonalLoop=1;jettySize=auto;html=1;fontSize=16;labelBackgroundColor=none;strokeColor=#464749;fontColor=default;fontFamily=Arial Nova Light;labelBorderColor=none;exitX=0;exitY=0.5;exitDx=0;exitDy=0;entryX=1;entryY=0.5;entryDx=0;entryDy=0;" parent="1" source="69" target="82" edge="1">
                    <mxGeometry relative="1" as="geometry">
                        <mxPoint x="310" y="589" as="sourcePoint"/>
                        <mxPoint x="500" y="589" as="targetPoint"/>
                    </mxGeometry>
                </mxCell>
                <mxCell id="89" value="" style="edgeStyle=orthogonalEdgeStyle;rounded=1;orthogonalLoop=1;jettySize=auto;html=1;exitX=0;exitY=0.5;exitDx=0;exitDy=0;entryDx=0;entryDy=0;fontSize=16;labelBackgroundColor=none;strokeColor=#464749;fontColor=default;fontFamily=Arial Nova Light;labelBorderColor=none;endArrow=none;" parent="1" source="58" target="88" edge="1">
                    <mxGeometry relative="1" as="geometry">
                        <mxPoint x="490" y="409" as="sourcePoint"/>
                        <mxPoint x="300" y="409" as="targetPoint"/>
                    </mxGeometry>
                </mxCell>
                <mxCell id="88" value="" style="shape=waypoint;sketch=0;fillStyle=solid;size=6;pointerEvents=1;points=[];fillColor=none;resizable=0;rotatable=0;perimeter=centerPerimeter;snapToPoint=1;rounded=1;shadow=0;strokeColor=#464749;fontFamily=Arial Nova Light;fontColor=#464749;" parent="1" vertex="1">
                    <mxGeometry x="380" y="399" width="20" height="20" as="geometry"/>
                </mxCell>
                <mxCell id="90" value="&lt;span style=&quot;background-color: rgb(255, 0, 0);&quot;&gt;&lt;font color=&quot;#ffffff&quot;&gt;TODO: Should this be shown here? ----------------&amp;gt;&lt;/font&gt;&lt;/span&gt;" style="text;html=1;align=center;verticalAlign=middle;resizable=0;points=[];autosize=1;strokeColor=none;fillColor=none;fontFamily=Arial Nova Light;fontColor=#464749;" parent="1" vertex="1">
                    <mxGeometry x="120" y="170" width="280" height="30" as="geometry"/>
                </mxCell>
            </root>
        </mxGraphModel>
    </diagram>
</mxfile>
